<?xml version="1.0" standalone="no"?>
<!DOCTYPE svg PUBLIC "-//W3C//DTD SVG 20010904//EN" "http://www.w3.org/TR/2001/REC-SVG-20010904/DTD/svg10.dtd">
<svg version="1.0" xmlns="http://www.w3.org/2000/svg"
    width="100pt" height="100pt" viewBox="0 0 100 100"
    preserveAspectRatio="xMidYMid meet">

    <g transform="translate(0,100) scale(0.1,-0.1)"
        fill="#FFFFFF" stroke="none">
        <path d="M405 776 l-260 -101 0 -225 c0 -193 2 -225 15 -225 13 0 15 31 18
        211 l2 211 247 94 c135 52 253 99 261 105 16 12 8 35 -11 33 -7 -1 -129 -47
        -272 -103z"/>
        <path d="M505 696 l-260 -101 0 -225 c0 -193 2 -225 15 -225 13 0 15 31 18
        211 l2 211 247 94 c135 52 253 99 261 105 16 12 9 35 -11 33 -7 -1 -129 -47
        -272 -103z"/>
        <path d="M596 619 c-126 -49 -235 -94 -243 -100 -18 -16 -19 -417 0 -424 13
        -6 447 157 485 181 22 15 22 16 20 222 -3 175 -5 207 -18 209 -8 1 -118 -39
        -244 -88z"/>
    </g>
</svg>
