<?xml version="1.0" encoding="UTF-8"?>
<svg version="1.1" xmlns="http://www.w3.org/2000/svg" width="100" height="100">
    <path d="M0 0 C3.40930856 1.86161388 5.60536143 4.06830402 7.76171875 7.24609375 C8.42171875 7.24609375 9.08171875 7.24609375 9.76171875 7.24609375 C10.62796875 6.10140625 10.62796875 6.10140625 11.51171875 4.93359375 C14.77398353 1.03699971 17.47538683 -0.4931563 22.5703125 -1.07421875 C29.22396257 -1.32341913 33.45527807 -0.84428761 38.76171875 3.24609375 C43.76777409 8.64736399 44.08846037 13.08439535 44.0625 20.21484375 C43.63911408 24.48169401 42.25898257 26.81235599 39.76171875 30.24609375 C40.89609375 30.55546875 42.03046875 30.86484375 43.19921875 31.18359375 C46.76171875 32.24609375 46.76171875 32.24609375 47.76171875 33.24609375 C47.86538902 34.80060363 47.90023397 36.3597763 47.90698242 37.91772461 C47.91336227 38.91223129 47.91974213 39.90673798 47.92631531 40.93138123 C47.92742813 42.0136348 47.92854095 43.09588837 47.9296875 44.2109375 C47.9346801 45.86640343 47.9346801 45.86640343 47.93977356 47.55531311 C47.94484761 49.89486269 47.94718174 52.23441953 47.94702148 54.57397461 C47.94920723 58.16467141 47.96735609 61.75506079 47.98632812 65.34570312 C47.98926202 67.61328019 47.99124684 69.88085873 47.9921875 72.1484375 C47.99937302 73.22866684 48.00655853 74.30889618 48.01396179 75.42185974 C48.01088516 76.41951859 48.00780853 77.41717743 48.00463867 78.44506836 C48.00606369 79.32585556 48.00748871 80.20664276 48.00895691 81.11412048 C47.76171875 83.24609375 47.76171875 83.24609375 45.76171875 85.24609375 C42.80126953 85.50006104 42.80126953 85.50006104 38.95703125 85.50488281 C38.2576947 85.50838745 37.55835815 85.51189209 36.83782959 85.51550293 C34.52069237 85.52432251 32.2038592 85.51847045 29.88671875 85.51171875 C28.28011008 85.51306534 26.6735018 85.51500582 25.06689453 85.51751709 C21.69755173 85.52046865 18.32831488 85.51616972 14.95898438 85.50683594 C10.63432381 85.49544133 6.30991146 85.50200064 1.98526001 85.51398087 C-1.33294555 85.52119863 -4.651092 85.51891194 -7.96929932 85.51372528 C-9.56414825 85.51238855 -11.1590025 85.51403733 -12.75384521 85.51868439 C-14.98057323 85.52374831 -17.20689601 85.51604163 -19.43359375 85.50488281 C-20.70219238 85.50329163 -21.97079102 85.50170044 -23.27783203 85.50006104 C-26.23828125 85.24609375 -26.23828125 85.24609375 -28.23828125 83.24609375 C-28.49224854 81.12084961 -28.49224854 81.12084961 -28.49707031 78.4609375 C-28.50337463 77.46650635 -28.50967896 76.4720752 -28.51617432 75.44750977 C-28.51212585 74.37041748 -28.50807739 73.2933252 -28.50390625 72.18359375 C-28.5058197 71.08136475 -28.50773315 69.97913574 -28.50970459 68.84350586 C-28.51106737 66.50992607 -28.50736447 64.17633872 -28.49902344 61.84277344 C-28.48832546 58.26089528 -28.49891583 54.67951872 -28.51171875 51.09765625 C-28.51039717 48.8346343 -28.50783482 46.57161267 -28.50390625 44.30859375 C-28.50795471 43.23150146 -28.51200317 42.15440918 -28.51617432 41.04467773 C-28.50987 40.05024658 -28.50356567 39.05581543 -28.49707031 38.03125 C-28.49547913 37.153479 -28.49388794 36.27570801 -28.49224854 35.37133789 C-28.23828125 33.24609375 -28.23828125 33.24609375 -26.23828125 31.24609375 C-24.11328125 30.62109375 -24.11328125 30.62109375 -22.23828125 30.24609375 C-22.89828125 29.33859375 -23.55828125 28.43109375 -24.23828125 27.49609375 C-27.17093239 22.34300674 -27.01273476 17.0036471 -26.23828125 11.24609375 C-24.60216524 6.346495 -21.50559106 3.09096696 -17.23828125 0.24609375 C-11.87617175 -1.54127608 -5.40044198 -1.81899704 0 0 Z M7.76171875 26.24609375 C6.11705135 28.70936087 6.11705135 28.70936087 4.76171875 31.24609375 C7.40171875 31.24609375 10.04171875 31.24609375 12.76171875 31.24609375 C11.40638615 28.70936087 11.40638615 28.70936087 9.76171875 26.24609375 C9.10171875 26.24609375 8.44171875 26.24609375 7.76171875 26.24609375 Z" 
        fill="#FFFFFF" transform="translate(30.23828125,8.75390625)"/>
    <path d="M0 0 C0 13.2 0 26.4 0 40 C-9 40 -9 40 -11.875 37.6875 C-12.57625 36.800625 -13.2775 35.91375 -14 35 C-14.52698486 34.55809326 -15.05396973 34.11618652 -15.59692383 33.66088867 C-18.57125605 30.14002873 -17.64303345 24.70945737 -17.6875 20.3125 C-17.74099609 19.24837891 -17.79449219 18.18425781 -17.84960938 17.08789062 C-17.91724884 11.32429658 -17.42450954 7.62974809 -13.51953125 3.23046875 C-9.0380209 -1.24761318 -7.34124915 0 0 0 Z" 
        fill="#FFFFFF" transform="translate(98,48)"/>
</svg>
